<?xml version="1.0" encoding="UTF-8"?>
<svg xmlns="http://www.w3.org/2000/svg" width="275" height="51" viewBox="0 0 275 51">
  <defs>
    <style>
      .cls-1 {
        fill: none;
      }

      .cls-2 {
        fill: #fff;
      }
    </style>
  </defs>
  <g id="_ロゴ" data-name="ロゴ">
    <g>
      <g>
        <path class="cls-2" d="m25.5,51C11.44,51,0,39.56,0,25.5S11.44,0,25.5,0s25.5,11.44,25.5,25.5-11.44,25.5-25.5,25.5Zm0-49.01C12.54,1.99,1.99,12.54,1.99,25.5s10.55,23.51,23.51,23.51,23.51-10.55,23.51-23.51S38.46,1.99,25.5,1.99Z"/>
        <path class="cls-2" d="m46.53,26.55c1.09-3.78-.69-7.92-1.77-2.57-.37,1.82-1.81,2.6-1.81,2.6,0,0,3.29-6.08,1.61-10.83-1.22-3.45-3.2-4.73-2.6-.69.45,3.03-.58,4.76-.58,4.76.13-.95.24-5.6-1.19-8.28-1.12-2.09-2.18-2.87-2.85-3.28-.68-.41-2.06-1.3-2.49-.82-.55.62.23,2.28.23,2.28,1.21,2.14,3.83,8.3-1.1,16.93-.04.07-.07.16-.11.24-.5.99-1.34,1.93-2.58,2.15-.26.05-.46.09-.63.13.12-1.11.02-1.69.02-1.69,0-2.86-2.32-5.18-5.18-5.18s-5.18,2.32-5.18,5.18c0,0-.09.58.02,1.69-.17-.04-.37-.08-.63-.13-1.23-.22-2.08-1.17-2.58-2.15-.04-.08-.07-.16-.11-.24-4.93-8.63-2.31-14.79-1.1-16.93,0,0,.78-1.66.23-2.28-.43-.48-1.81.4-2.49.82-.68.41-1.74,1.19-2.85,3.28-1.43,2.68-1.31,7.32-1.19,8.28,0,0-1.03-1.72-.58-4.76.6-4.05-1.37-2.77-2.6.69-1.68,4.75,1.61,10.83,1.61,10.83,0,0-1.44-.78-1.81-2.6-1.08-5.35-2.86-1.2-1.77,2.57,1.31,4.53,6.12,6.39,6.12,6.39,0,0-.7.31-2.79-1.04-3.45-2.22-1.73,1.47.73,2.88,2.59,1.48,4.73,1.21,4.73,1.21,0,0-.29.4-1.04.38-1.41-.04-1.65,1.17,2.14,1.47,1.54.12,3.72-.28,4.75-.88-.11.86-.78,1.29-.3,1.59.85.52,3.64-1.45,3.94-2.1,0,0,0,0,0,0,.7,1.36,1.6,2.85,2.74,4.47,1.15-1.62,2.04-3.12,2.74-4.47,0,0,0,0,0,0,.3.65,3.09,2.62,3.94,2.1.49-.3-.19-.73-.3-1.59,1.03.6,3.21,1.01,4.75.88,3.8-.31,3.56-1.52,2.14-1.47-.75.02-1.04-.38-1.04-.38,0,0,2.14.27,4.73-1.21,2.46-1.41,4.18-5.1.73-2.88-2.08,1.34-2.79,1.04-2.79,1.04,0,0,4.8-1.87,6.12-6.39Zm-21.03,4.93c-1.95-2.77-1.69-4.39-1.69-4.39,0-.93.76-1.69,1.69-1.69s1.69.76,1.69,1.69c0,0,.26,1.62-1.69,4.39Z"/>
        <g>
          <path class="cls-1" d="m27.47,44.49c.21.1.44.21.67.33-.29-.15-.55-.27-.67-.33,0,0,0,0,0,0Z"/>
          <path class="cls-1" d="m23.53,44.49s0,0,0,0c-.12.06-.39.18-.68.33.24-.12.46-.23.68-.33Z"/>
          <path class="cls-2" d="m24.42,44.1h2.16c.26,0,.48-.25.48-.55v-1.19c0-.32-.26-.58-.52-.66h-.01s-.53-.2-1.03-.2-1.03.17-1.03.17c-.31.12-.52.39-.52.69v1.19c0,.3.21.55.47.55Z"/>
          <path class="cls-2" d="m27.35,43.31c.83-.36,1.88-.52,2.86.36.15.14.4.04.4-.17l.24-1.11c0-.08-.03-.15-.09-.19-.37-.27-1.82-1.17-3.68-.51.17.17.29.4.29.66v.96Z"/>
          <path class="cls-2" d="m28.23,44.53c.57,0,1.21-.07,1.83-.29.17-.06.2-.16.04-.28-.56-.4-1.11-.86-2.76-.29-.02.13-.07.25-.13.35l.32.16s.33.15.69.34Z"/>
          <path class="cls-2" d="m30.52,46.18c-.82-.53-1.63-.98-2.35-1.35,0,0-.02,0-.03-.01-.24-.12-.46-.23-.67-.33,0,0,0,0,0,0-.04-.02-.06-.03-.07-.03l-.41-.2c-.12.08-.26.13-.41.13h-.9c1.26.95,1.51,1.95,1.8,2.29.22.25,1.45.29,1.55.28.41-.03.98-.05,1.35-.31.22-.15.36-.34.13-.48Z"/>
          <path class="cls-2" d="m20.79,43.67c.98-.87,2.03-.71,2.86-.36v-.96c0-.25.1-.48.27-.67-1.86-.65-3.3.24-3.67.51-.06.04-.09.11-.09.19l.24,1.11c0,.21.24.31.4.17Z"/>
          <path class="cls-2" d="m23.79,44.03c-.07-.1-.11-.22-.13-.35-1.65-.57-2.19-.12-2.76.29-.16.12-.13.22.04.28.63.21,1.26.28,1.83.29.37-.18.69-.34.7-.34l.32-.16Z"/>
          <path class="cls-2" d="m24.01,44.26l-.41.2s-.03.01-.07.03c0,0,0,0,0,0-.21.1-.44.21-.68.33,0,0-.01,0-.02,0-.72.36-1.54.82-2.36,1.35-.23.15-.08.33.13.48.37.25.94.28,1.35.31.1,0,1.34-.03,1.55-.28.29-.34.54-1.34,1.8-2.29h-.9c-.15,0-.29-.05-.41-.13Z"/>
          <path d="m22.84,44.83s.01,0,.02,0c0,0-.01,0-.02,0Z"/>
          <path d="m28.17,44.84s-.02,0-.03-.01c0,0,.02,0,.03.01Z"/>
        </g>
        <g>
          <path class="cls-2" d="m17.14,8.05c.28-.13.56-.26.84-.38.41.13,3.91,1.1,6.5-2.36,0,0-3.23-1.47-6.08,1.78-.44.17-.87.36-1.3.56.03.13.04.26.04.4Z"/>
          <path class="cls-2" d="m12.85,7.85c-.04-.2-.09-.41-.16-.63,0,0-1.24.74-1.6,2.39.65-.88,1.26-1.41,1.77-1.76Z"/>
          <path class="cls-2" d="m19.85,9.48s-1.04-1.01-2.73-.91c-.09.65-.34,1.25-.47,1.51l-.03.05c-.03.06-.06.11-.09.17.91.13,2.06.01,3.32-.82Z"/>
          <path class="cls-2" d="m16.4,11.09s-.08-.05-.22-.1c-.09.19-.17.38-.25.56.16-.14.31-.29.47-.46Z"/>
          <path class="cls-2" d="m15.79,6.51c.5,0,.8.22.97.41.04.05.07.09.11.14.24-.61.38-1.34.32-2.24,0,0-1.31.4-2.07,1.81.23-.07.46-.12.68-.12Z"/>
          <path class="cls-2" d="m5.09,31.82c-.35-.1-.72-.17-1.15-.2,0,0,.36,2.3,3.03,3.01-.95-.84-1.74-1.94-1.88-2.81Z"/>
          <path class="cls-2" d="m16.48,43.03c-.37-.2-.74-.4-1.1-.62.1-.41.41-2.16-.88-3.76-.07,0-.14,0-.2,0-.42-.03-.79-.08-1.14-.14-.06.86.11,2.18,1.44,3.4-1.17-.79-2.25-1.69-3.21-2.69.04-.07.23-.47.35-1.06-.87-.33-1.3-.8-1.27-1.41,0-.09.02-.18.05-.27-.19-.05-.39-.12-.59-.19.06.71.32,1.53.98,2.39-.05-.05-.09-.1-.15-.15-.74-.85-1.4-1.76-1.98-2.72-.21-.1-.42-.21-.64-.34.44.78.93,1.53,1.47,2.25-.8-.4-1.89-.63-3.29-.28,0,0,1.24,2.48,4.6,1.84.7.75,1.47,1.46,2.3,2.1-.86-.2-1.94-.18-3.19.44,0,0,1.76,2.22,4.97.8.42.26.86.51,1.3.74.03.01.06.02.09.02.07,0,.14-.04.17-.1.05-.09.01-.21-.08-.26Z"/>
          <path class="cls-2" d="m4.02,21.18c.26-.34.55-.48.77-.52-.22-.25-.48-.49-.79-.72,0,0-.32.71-.24,1.7.08-.17.16-.33.26-.45Z"/>
          <path class="cls-2" d="m4.87,29.27c-.48-.73-.88-1.56-1.16-2.5-.05-.17-.09-.34-.13-.51-.21-.08-.44-.16-.68-.22,0,0-.04,2.01,1.97,3.22Z"/>
          <path class="cls-2" d="m8.63,11.75c.34,0,.65.15.88.41.04.04.07.09.1.14.02-.05.04-.09.05-.14-.07-.49-.22-1.02-.5-1.58,0,0-.53.43-.9,1.24.12-.04.24-.06.37-.06Z"/>
        </g>
        <g>
          <path class="cls-2" d="m33.86,8.05c-.28-.13-.56-.26-.84-.38-.41.13-3.91,1.1-6.5-2.36,0,0,3.23-1.47,6.08,1.78.44.17.87.36,1.3.56-.03.13-.04.26-.04.4Z"/>
          <path class="cls-2" d="m38.15,7.85c.04-.2.09-.41.16-.63,0,0,1.24.74,1.6,2.39-.65-.88-1.26-1.41-1.77-1.76Z"/>
          <path class="cls-2" d="m31.15,9.48s1.04-1.01,2.73-.91c.09.65.34,1.25.47,1.51l.03.05c.03.06.06.11.09.17-.91.13-2.06.01-3.32-.82Z"/>
          <path class="cls-2" d="m34.6,11.09s.08-.05.22-.1c.09.19.17.38.25.56-.16-.14-.31-.29-.47-.46Z"/>
          <path class="cls-2" d="m35.21,6.51c-.5,0-.8.22-.97.41-.04.05-.07.09-.11.14-.24-.61-.38-1.34-.32-2.24,0,0,1.31.4,2.07,1.81-.23-.07-.46-.12-.68-.12Z"/>
          <path class="cls-2" d="m45.91,31.82c.35-.1.72-.17,1.15-.2,0,0-.36,2.3-3.03,3.01.95-.84,1.74-1.94,1.88-2.81Z"/>
          <path class="cls-2" d="m34.52,43.03c.37-.2.74-.4,1.1-.62-.1-.41-.41-2.16.88-3.76.07,0,.14,0,.2,0,.42-.03.79-.08,1.14-.14.06.86-.11,2.18-1.44,3.4,1.17-.79,2.25-1.69,3.21-2.69-.04-.07-.23-.47-.35-1.06.87-.33,1.3-.8,1.27-1.41,0-.09-.02-.18-.05-.27.19-.05.39-.12.59-.19-.06.71-.32,1.53-.98,2.39.05-.05.09-.1.15-.15.74-.85,1.4-1.76,1.98-2.72.21-.1.42-.21.64-.34-.44.78-.93,1.53-1.47,2.25.8-.4,1.89-.63,3.29-.28,0,0-1.24,2.48-4.6,1.84-.7.75-1.47,1.46-2.3,2.1.86-.2,1.94-.18,3.19.44,0,0-1.76,2.22-4.97.8-.42.26-.86.51-1.3.74-.03.01-.06.02-.09.02-.07,0-.14-.04-.17-.1-.05-.09-.01-.21.08-.26Z"/>
          <path class="cls-2" d="m46.98,21.18c-.26-.34-.55-.48-.77-.52.22-.25.48-.49.79-.72,0,0,.32.71.24,1.7-.08-.17-.16-.33-.26-.45Z"/>
          <path class="cls-2" d="m46.13,29.27c.48-.73.88-1.56,1.16-2.5.05-.17.09-.34.13-.51.21-.08.44-.16.68-.22,0,0,.04,2.01-1.97,3.22Z"/>
          <path class="cls-2" d="m42.37,11.75c-.34,0-.65.15-.88.41-.04.04-.07.09-.1.14-.02-.05-.04-.09-.05-.14.07-.49.22-1.02.5-1.58,0,0,.53.43.9,1.24-.12-.04-.24-.06-.37-.06Z"/>
        </g>
        <path class="cls-2" d="m46.53,26.55c1.09-3.78-.69-7.92-1.77-2.57-.37,1.82-1.81,2.6-1.81,2.6,0,0,3.29-6.08,1.61-10.83-1.22-3.45-3.2-4.73-2.6-.69.45,3.03-.58,4.76-.58,4.76.13-.95.24-5.6-1.19-8.28-1.12-2.09-2.18-2.87-2.85-3.28-.68-.41-2.06-1.3-2.49-.82-.55.62.23,2.28.23,2.28,1.21,2.14,3.83,8.3-1.1,16.93-.04.07-.07.16-.11.24-.5.99-1.34,1.93-2.58,2.15-.26.05-.46.09-.63.13.12-1.11.02-1.69.02-1.69,0-2.86-2.32-5.18-5.18-5.18s-5.18,2.32-5.18,5.18c0,0-.09.58.02,1.69-.17-.04-.37-.08-.63-.13-1.23-.22-2.08-1.17-2.58-2.15-.04-.08-.07-.16-.11-.24-4.93-8.63-2.31-14.79-1.1-16.93,0,0,.78-1.66.23-2.28-.43-.48-1.81.4-2.49.82-.68.41-1.74,1.19-2.85,3.28-1.43,2.68-1.31,7.32-1.19,8.28,0,0-1.03-1.72-.58-4.76.6-4.05-1.37-2.77-2.6.69-1.68,4.75,1.61,10.83,1.61,10.83,0,0-1.44-.78-1.81-2.6-1.08-5.35-2.86-1.2-1.77,2.57,1.31,4.53,6.12,6.39,6.12,6.39,0,0-.7.31-2.79-1.04-3.45-2.22-1.73,1.47.73,2.88,2.59,1.48,4.73,1.21,4.73,1.21,0,0-.29.4-1.04.38-1.41-.04-1.65,1.17,2.14,1.47,1.54.12,3.72-.28,4.75-.88-.11.86-.78,1.29-.3,1.59.85.52,3.64-1.45,3.94-2.1,0,0,0,0,0,0,.7,1.36,1.6,2.85,2.74,4.47,1.15-1.62,2.04-3.12,2.74-4.47,0,0,0,0,0,0,.3.65,3.09,2.62,3.94,2.1.49-.3-.19-.73-.3-1.59,1.03.6,3.21,1.01,4.75.88,3.8-.31,3.56-1.52,2.14-1.47-.75.02-1.04-.38-1.04-.38,0,0,2.14.27,4.73-1.21,2.46-1.41,4.18-5.1.73-2.88-2.08,1.34-2.79,1.04-2.79,1.04,0,0,4.8-1.87,6.12-6.39Zm-21.03,4.93c-1.95-2.77-1.69-4.39-1.69-4.39,0-.93.76-1.69,1.69-1.69s1.69.76,1.69,1.69c0,0,.26,1.62-1.69,4.39Z"/>
        <g>
          <path class="cls-2" d="m21.77,13.08c.25-.1.51-.19.78-.28.26-.08.54-.14.81-.2.08,0,.16-.02.24-.04s.15-.04.22-.07c.1-.04.21-.06.32-.07.1,0,.21,0,.32.04-.02.08-.07.15-.14.22-.06.06-.14.1-.22.11-.18.06-.34.11-.5.17-.16.06-.32.14-.47.22-.22.1-.43.19-.63.31-.21.11-.4.22-.59.35-.03.03-.06.04-.1.02-.03,0-.06-.02-.08-.06-.06-.09-.09-.18-.1-.29-.02-.1,0-.2.02-.31,0-.02.02-.05.03-.07.02-.02.04-.03.07-.04Zm.16-1.87c.06,0,.11-.02.18-.04.05,0,.1-.02.16-.05.1-.03.21-.05.32-.06.1-.02.21-.02.31,0,.08,0,.17,0,.25,0,.07,0,.15-.02.24-.03.1-.02.21-.02.32,0,.1.02.21.06.31.11l.14.11s.02.04.02.06,0,.04-.02.06c-.08.06-.17.1-.25.12-.09.03-.18.05-.27.05-.28,0-.55.02-.82.06-.27.05-.55.13-.8.22-.04.02-.08.02-.11,0-.05,0-.07-.03-.09-.07-.05-.06-.06-.14-.06-.22s.02-.16.06-.23c0-.02.02-.05.05-.06.02,0,.04-.02.07-.02Zm.22-1.45c.35-.03.69-.06,1.04-.07.35,0,.7,0,1.05,0,.06,0,.11.02.16.05.05.03.09.08.11.13l.1.2s.02.06.02.08c0,.03-.02.06-.04.07l-.12.13s-.04.05-.07.05c-.03,0-.06,0-.09,0-.26-.06-.52-.11-.79-.14-.26-.02-.53-.02-.8,0-.1.02-.19.04-.29.06-.1.02-.19.05-.29.08-.02.02-.04.02-.06,0-.03,0-.05-.02-.06-.06-.03-.08-.06-.16-.06-.24,0-.08,0-.17.02-.25.02-.02.03-.05.06-.07.02-.02.05-.02.08-.03Zm2.98-.2c.24-.06.48-.11.72-.16.24-.04.49-.07.74-.1l-.08-.18s-.02-.04,0-.06c0-.02,0-.04.03-.06.05-.05.1-.1.15-.14.06-.03.11-.07.17-.11.03-.02.06-.02.1-.02s.06,0,.09.02c.05.03.09.06.13.09s.08.06.12.1c.02.03.04.06.06.09s.02.06.03.1v.14h.35c.11,0,.23,0,.35.02l.18-.28-.06-.1s-.02-.03-.02-.06c0-.02,0-.04.02-.06.02-.04.06-.08.1-.12.03-.04.06-.07.1-.1.02-.02.03-.02.06-.03.02,0,.04,0,.06,0l.3.12s.02.03.03.05c0,.02,0,.04-.02.06l-.33.56c.06.02.12.05.18.06.06.02.12.05.18.07.02.02.02.02.04.04v.05c-.03.06-.06.13-.1.19-.04.06-.09.11-.14.16-.02.02-.05.04-.08.05-.04.02-.07.02-.1,0-.19-.02-.38-.05-.55-.06-.19,0-.38,0-.56,0v.71c.18,0,.35.02.52.03.17.02.35.05.52.08l.18-.1c.13.02.25.07.35.15.1.09.18.19.21.31l.15,3.73c0,.06,0,.1-.05.15-.05.04-.1.06-.15.05l-.32-.13s-.06-.06-.07-.1c-.02-.03-.02-.06-.02-.1l-.06-1.58h-.63c-.21,0-.42,0-.63.02v.88c0,.22-.03.43-.07.64-.05.22-.11.43-.18.63-.02.03-.04.06-.07.07-.04,0-.08,0-.11-.02l-.14-.12s-.06-.06-.06-.1c-.02-.04-.02-.08,0-.11v-1.81c-.22.03-.46.06-.68.09-.23.03-.45.08-.67.13l-.06-.38c-.07.15-.15.3-.23.43-.1.14-.19.27-.3.4-.06.06-.14.12-.22.17-.08.05-.17.08-.26.09-.16.03-.31.05-.47.05-.16,0-.32,0-.48,0l.05-.26s.02-.06.06-.07c.02-.02.06-.02.09-.02.22-.03.43-.1.63-.22.2-.11.37-.26.51-.44.18-.26.33-.54.44-.84.1-.3.16-.61.18-.93l-.16-.05s-.08-.07-.11-.12c-.03-.05-.05-.1-.06-.15,0-.03,0-.06,0-.09,0-.02.02-.05.04-.07.03-.03.06-.06.1-.09.03-.02.06-.04.1-.06.02,0,.03-.02.06-.02.02,0,.03,0,.06.02l.2.19c.19-.06.39-.13.59-.18.19-.05.4-.08.61-.1v-.71c-.25.03-.49.07-.73.13-.24.06-.47.12-.7.2-.03.02-.06.02-.1.02-.04,0-.06-.02-.08-.04-.05-.05-.07-.11-.09-.18-.02-.06,0-.14.02-.2,0-.04.02-.08.03-.13,0-.04.02-.08.02-.12Zm.45,2.61c-.02.11-.05.22-.07.32-.03.1-.06.2-.1.3.22-.05.44-.09.67-.12.22-.03.45-.06.68-.07v-.51c-.21.02-.4.02-.59.03-.19.02-.39.03-.58.05Zm.06-.86v.41c.18-.02.36-.04.55-.06.18-.02.38-.02.57-.03v-.57c-.2.03-.39.06-.58.1-.18.05-.36.1-.54.14Zm1.75-.29v.59h.45c.14,0,.3,0,.45.02.06,0,.12.02.18.06.05.03.1.07.14.12l-.02-.88c-.06.07-.14.12-.22.14-.09.03-.18.03-.26,0l-.14-.02s-.1-.02-.14-.02h-.22c-.08,0-.15,0-.22,0Zm.02,1.56c.13,0,.26,0,.4,0,.13,0,.26.02.39.02.08.02.15.03.23.06.07.02.14.06.22.1l-.02-.73c-.21,0-.41,0-.62,0-.21,0-.41.02-.61.02v.52Z"/>
          <path class="cls-2" d="m22.8,17.77v-.84s-.07-.1-.07-.1c-.02-.02-.04-.03-.05-.06-.02-.03-.02-.06,0-.09.02-.08.06-.16.1-.24.03-.08.08-.16.14-.23,0,0,.02,0,.04-.02h.05c.09.03.18.06.26.09.08.04.16.09.23.14.02.02.02.04.03.06v.06c0,.06-.02.11-.03.18s-.05.11-.08.16c-.02.03-.04.06-.05.08,0,.03,0,.06,0,.09v.75s.72,0,.72,0c.03,0,.06,0,.08,0,.02.02.04.04.06.07.02.04.02.08.04.12,0,.05.02.09.02.13l-.24.26s-.07.05-.1.06c-.05.02-.09.02-.13,0l-.47-.02.02,1.41.82-.14.06.04s.03.05.04.08c0,.02,0,.05-.02.08-.03.06-.07.1-.11.14-.05.05-.1.09-.17.12l-1.96.66s-.07.02-.1,0c-.04,0-.07-.03-.09-.06l-.22-.31s-.02-.06-.02-.1c0-.03,0-.06.03-.1l.1-.18,1.08-.16.02-1.49-.65-.02-.16.14s-.06.03-.09.02c-.03,0-.06-.02-.08-.05l-.22-.47s-.02-.04-.02-.07c0-.02.02-.03.04-.05l.13-.1s.03-.02.06-.03c.02,0,.04,0,.06,0h.92Zm.63,2.94l.1-.17.31-.02c.14,0,.28-.06.39-.15.11-.08.19-.19.24-.34.13-.31.22-.62.26-.96.04-.33.04-.67,0-1,0-.05-.02-.09-.05-.13-.02-.04-.06-.07-.1-.1l-.12-.09s-.02-.02-.02-.03c0,0,0-.02,0-.03l.02-.11s0-.04,0-.06c0-.02.02-.03.04-.05l.33-.22s.02-.02.05-.02c.02,0,.02,0,.04.02l.12.08s.08-.03.13-.05c.04,0,.09-.02.14-.02l1.06-.02-.03-.23s-.02-.06,0-.1c0-.03.02-.06.04-.09l.15-.39s.04-.06.06-.08c.03-.02.06-.03.09-.05.06-.02.14-.02.21-.02.06,0,.14.02.2.05.02.03.04.06.04.1s0,.06-.02.1c-.05.06-.1.12-.15.17-.06.06-.11.12-.17.17-.02.02-.03.05-.04.07-.02.02-.02.05,0,.08l.03.24h.93l.23-.51s.03-.08.04-.13c0-.05,0-.1-.02-.14l-.03-.1s-.02-.02,0-.04c0-.02,0-.02,0-.04l.09-.1s.04-.03.07-.05h.07l.39.2s.04.06.05.09c0,.03,0,.06-.02.09l-.38.72.29.02s.02,0,.04,0c0,0,.02.02.03.02l.11.15s.02.02.02.04,0,.03,0,.05l-.13.23s-.04.06-.07.07c-.03.02-.06.02-.09.02l-1.41-.04c.08.26.18.5.29.73.11.24.24.47.39.7l.07-.28s.02-.07.06-.1c.02-.02.06-.04.1-.04h.24s.04.02.07.02c.02.02.04.04.06.06l.08.17s.02.06.02.07c0,.03,0,.06-.02.08l-.25.67c.1.11.2.22.31.34.1.11.22.22.33.34.02.03.06.06.1.06.04.02.08.02.13,0l.29-.02s.03,0,.05,0,.02,0,.03.02c0,.02.02.02.02.04v.05l-.31.64s-.06.06-.1.07c-.04.02-.08.02-.11.02l-.19-.02s-.06,0-.08-.02c-.03-.02-.06-.03-.09-.06-.12-.11-.23-.24-.34-.37-.11-.13-.22-.26-.32-.39l-.32.95s-.03.07-.05.09c-.02.03-.06.05-.09.06l-.14.07s-.04,0-.06,0c-.02,0-.04-.02-.04-.04l-.06-.08s-.02-.03-.02-.05,0-.03,0-.05l.39-1.61c-.11-.18-.22-.37-.31-.56s-.18-.39-.25-.59c.02.39-.03.77-.17,1.12-.14.37-.35.68-.61.96-.04.03-.08.06-.13.06-.05.02-.1,0-.14-.02l-.51-.31s-.04-.02-.05-.06c-.02-.02-.02-.04-.02-.07,0-.02,0-.05.03-.07.02-.02.03-.03.06-.04l.29-.06s.1-.02.14-.05c.03-.02.07-.05.1-.1.1-.14.19-.31.26-.49.06-.18.1-.35.14-.53l-.94.1c-.05.34-.14.65-.28.95-.14.31-.33.59-.55.84-.05.05-.11.07-.18.07-.06,0-.13,0-.18-.04l-.75-.33Zm1.9-2.06l1.03-.05s.06-.03.09-.05c.03,0,.06,0,.1,0l.22.08c-.03-.14-.06-.3-.1-.44-.04-.14-.08-.29-.13-.43h-1.02s-.1,0-.14.04c-.04.05-.06.1-.06.14v.7Z"/>
        </g>
      </g>
      <g>
        <g>
          <path class="cls-2" d="m58.27,20.29c.59-.23,1.19-.45,1.84-.66.63-.19,1.27-.34,1.91-.47.19-.02.38-.06.57-.09s.36-.09.53-.17c.25-.09.49-.15.76-.17.25,0,.49.02.76.09-.06.19-.17.36-.32.51s-.32.23-.51.26c-.42.13-.8.27-1.17.4-.38.15-.76.32-1.12.51-.51.23-1,.45-1.48.72-.49.27-.95.53-1.4.81-.08.08-.15.09-.23.06-.08,0-.15-.06-.19-.13-.13-.21-.21-.44-.25-.68-.04-.23-.02-.47.06-.72,0-.06.04-.11.08-.17.04-.04.09-.08.17-.09Zm.38-4.41c.13-.02.27-.06.42-.09.11-.02.25-.06.38-.11.25-.08.49-.11.76-.15.25-.04.49-.04.74-.02.19.02.4.02.59.02.17,0,.36-.04.57-.08.23-.04.49-.06.76-.02.25.04.49.13.72.27l.32.26s.06.09.06.15-.02.09-.06.13c-.19.13-.4.23-.59.28-.21.08-.42.11-.64.11-.66,0-1.31.04-1.93.15-.64.11-1.29.3-1.89.53-.09.04-.19.06-.27.02-.11-.02-.17-.08-.21-.17-.11-.15-.15-.34-.15-.53s.04-.38.15-.55c0-.06.04-.11.11-.15.04-.02.09-.04.17-.06Zm.53-3.43c.81-.08,1.63-.13,2.46-.17.83-.02,1.65-.02,2.48.02.13,0,.27.04.38.11.11.08.21.19.26.3l.25.47c.04.08.06.13.06.19-.02.08-.06.13-.09.17l-.28.3c-.04.08-.09.11-.17.11-.08.02-.15.02-.21-.02-.61-.15-1.23-.27-1.86-.32-.62-.04-1.25-.04-1.87,0-.23.04-.45.09-.68.15-.23.06-.45.11-.68.19-.04.04-.09.06-.15.02-.08-.02-.11-.06-.13-.13-.08-.19-.13-.38-.13-.57-.02-.19,0-.4.04-.59.04-.06.08-.11.15-.17.06-.04.11-.06.19-.08Zm7.03-.47c.57-.15,1.14-.27,1.7-.38.57-.09,1.16-.17,1.74-.25l-.19-.42s-.04-.09-.02-.15c0-.06.02-.09.08-.13.11-.11.23-.23.36-.32.13-.08.27-.17.4-.27.08-.04.15-.06.23-.06s.13,0,.21.04c.11.08.21.13.3.21.09.08.19.15.28.23.04.08.09.13.13.21.04.08.06.15.08.23v.32h.83c.27,0,.55.02.83.04l.44-.66-.15-.23s-.04-.08-.04-.13c0-.04,0-.09.04-.15.06-.09.13-.19.23-.28.08-.09.15-.17.25-.25.04-.04.08-.06.13-.08.04,0,.09.02.15.02l.7.28s.06.08.08.11c0,.06,0,.09-.04.13l-.78,1.33c.15.06.28.11.44.15.15.06.28.11.42.17.04.04.06.06.09.09v.11c-.08.15-.15.3-.23.45-.09.15-.21.26-.32.38-.06.06-.11.09-.19.11-.09.04-.17.04-.25,0-.45-.06-.89-.11-1.31-.15-.45-.02-.89-.02-1.33-.02l.02,1.67c.4,0,.8.04,1.21.08.4.04.81.11,1.23.19l.44-.25c.3.04.59.17.83.36.25.21.42.45.49.74l.36,8.79c.02.13-.02.25-.11.36-.11.09-.25.13-.36.11l-.76-.3c-.08-.06-.13-.13-.17-.23-.04-.08-.06-.15-.06-.25l-.13-3.73h-1.48c-.49,0-.98.02-1.48.04l.02,2.06c-.04.51-.09,1.02-.19,1.52-.11.51-.27,1-.44,1.5-.04.08-.09.13-.17.17-.09.02-.19,0-.27-.04l-.32-.28c-.08-.08-.13-.15-.15-.23-.04-.09-.06-.19-.02-.27l.02-4.28c-.55.08-1.1.13-1.63.21-.53.08-1.06.19-1.59.3l-.15-.89c-.17.36-.36.7-.55,1.02-.23.34-.45.64-.7.95-.15.15-.32.28-.51.4s-.4.19-.62.21c-.38.08-.74.11-1.12.11-.38.02-.76.02-1.14,0l.11-.61c.02-.08.06-.13.13-.17.06-.04.13-.06.21-.06.53-.08,1.02-.25,1.5-.51s.87-.62,1.19-1.04c.44-.61.78-1.27,1.04-1.99.23-.7.38-1.44.42-2.2l-.38-.11c-.11-.08-.19-.17-.27-.28-.08-.11-.11-.23-.13-.36-.02-.08-.02-.13.02-.21,0-.06.04-.11.09-.17.08-.08.15-.13.23-.21.08-.04.15-.09.25-.15.04-.02.08-.04.13-.04.04,0,.08.02.13.04l.47.45c.45-.15.91-.3,1.4-.42.45-.11.95-.19,1.44-.25v-1.69c-.59.08-1.16.17-1.72.3-.57.13-1.12.28-1.65.47-.08.04-.15.06-.23.04-.09,0-.15-.04-.19-.09-.11-.11-.17-.27-.21-.44-.04-.15-.02-.32.06-.47.02-.09.04-.19.08-.3.02-.09.04-.19.06-.28Zm1.06,6.16c-.06.27-.11.51-.17.76-.08.25-.15.47-.25.7.51-.11,1.04-.21,1.57-.28.53-.08,1.06-.13,1.61-.17l-.02-1.19c-.47.04-.93.06-1.38.08-.45.04-.91.08-1.36.11Zm.13-2.03l-.02.97c.44-.04.87-.09,1.31-.13s.89-.06,1.34-.08l-.02-1.34c-.45.08-.91.15-1.34.25-.42.11-.85.23-1.27.34Zm4.13-.68v1.4h1.06c.34,0,.7.02,1.06.04.15.02.28.06.44.13.11.08.23.17.34.28l-.06-2.08c-.15.17-.34.28-.53.32-.21.08-.42.08-.61,0-.11-.02-.23-.04-.34-.06s-.23-.04-.34-.06h-.51c-.19,0-.36.02-.51.02Zm.04,3.67c.3,0,.61.02.95.02.3.02.62.04.93.04.19.04.36.08.55.15.17.06.34.13.51.23l-.06-1.72c-.49,0-.97.02-1.46.02-.49.02-.97.04-1.44.04l.02,1.23Z"/>
          <path class="cls-2" d="m76.74,23.07c0-.09.04-.21.09-.32.04-.09.11-.19.19-.27l3.54-1.08.36.13c.06.04.09.11.11.19,0,.08-.02.15-.06.21l-2.78,2.33c-.13.11-.28.17-.45.17s-.32-.06-.45-.17c-.15-.15-.28-.32-.38-.53-.11-.19-.17-.42-.17-.66Zm.11-5.85c0-.11.02-.25.09-.36.08-.09.17-.17.3-.23.49-.08.97-.11,1.46-.08.49.06.97.17,1.44.32.08.04.15.09.21.17.04.08.06.17.06.25s-.04.15-.08.19c-.04.06-.09.09-.15.13-.34.11-.66.21-.97.28-.32.09-.64.17-.98.23-.11.02-.21.04-.32.06-.11.04-.23.08-.34.11-.04.04-.06.04-.09.04-.06,0-.09,0-.13-.02-.15-.13-.26-.3-.34-.49-.09-.19-.15-.4-.15-.61Zm.38-3.75c-.08-.15-.13-.3-.17-.47-.04-.15-.06-.32-.02-.49,0-.11.02-.25.08-.36.04-.11.11-.21.19-.28.04-.04.08-.06.13-.09.04,0,.08-.02.13-.02.53,0,1.08.06,1.61.17.53.11,1.02.3,1.52.53.11.08.21.15.28.23.08.09.15.19.21.3.04.09.02.17-.02.25-.04.09-.11.15-.21.15-.51.08-1.02.13-1.52.15-.51.02-1.02.02-1.53.02-.08,0-.13.02-.21.02s-.15.02-.21.02c-.08.02-.11.02-.15-.02-.04,0-.08-.04-.11-.09Zm2.2,5.62c.04-.11.09-.21.17-.28.08-.08.17-.15.28-.19h.7c.26.02.51-.02.74-.09.23-.08.45-.19.64-.38.42-.34.81-.68,1.21-1.04.38-.34.78-.72,1.17-1.12-.45.08-.87.13-1.29.21s-.83.15-1.25.23c-.11.04-.21.04-.28,0-.11,0-.19-.04-.27-.11-.11-.15-.21-.34-.27-.53-.08-.19-.09-.38-.08-.61.02-.08.06-.15.13-.23.06-.06.13-.11.21-.15.72-.06,1.46-.11,2.18-.17.72-.04,1.44-.08,2.16-.11l.28-.36c-.11-.15-.13-.32-.09-.51.04-.17.11-.32.27-.44l-.8.15c-.15.04-.28.04-.44.02-.15,0-.3-.04-.44-.08-.23-.08-.45-.17-.64-.3-.19-.13-.38-.28-.55-.44-.06-.06-.09-.11-.09-.19-.02-.08-.02-.15,0-.23.08-.04.17-.08.28-.09.11,0,.21,0,.28.02.78-.06,1.55-.15,2.33-.3.76-.11,1.52-.28,2.27-.47.19.02.38-.04.55-.15.15-.11.27-.27.34-.45,0-.06.02-.11.08-.15.04-.04.08-.08.15-.09.34.06.62.19.89.42.25.23.4.51.45.85,0,.06,0,.11-.02.15-.02.08-.04.11-.08.13-.06.04-.11.08-.17.08-.06.02-.11.02-.17-.02-.11-.04-.21-.06-.3-.06-.11,0-.21.02-.3.04l-2.92,1,.49.44c.06.08.09.15.11.25,0,.09-.02.19-.04.26l-.34.47c1.1-.02,2.2-.02,3.3.02,1.1.04,2.18.08,3.28.15.08,0,.13.04.17.08.04.04.08.09.09.17.02.19,0,.4-.04.59-.08.19-.17.36-.32.47-.08.08-.17.11-.27.13-.11.04-.19.04-.27,0-.64-.08-1.29-.15-1.93-.21-.66-.04-1.31-.08-1.95-.09l4,2.54c.19.11.42.15.64.15.21,0,.42-.04.62-.15.09-.04.19-.06.3-.09.09-.04.21-.04.32-.02l.15.04s.04.04.06.06c0,.02,0,.04-.02.06-.04.13-.09.27-.13.38-.08.13-.13.25-.21.36-.13.23-.28.44-.47.62-.19.17-.38.32-.59.45-.13.11-.27.15-.42.15-.17,0-.32-.04-.44-.11l-.74-.47.91,2.97c.04.11.06.23.06.34-.02.11-.04.23-.08.32-.04.06-.06.09-.09.11-.04.04-.09.08-.13.08-.34-.27-.62-.59-.83-.95-.23-.36-.38-.76-.47-1.17-.04-.13-.09-.27-.17-.4-.09-.11-.21-.21-.32-.28-.11-.08-.19-.17-.23-.28-.08-.09-.09-.21-.08-.34.04-.19.09-.4.21-.59.08-.15.21-.3.36-.45l-4.38-3.26-.91.04c-.59.76-1.23,1.46-1.91,2.14-.68.7-1.4,1.34-2.14,1.93-.42-.08-.83-.15-1.23-.27-.42-.09-.8-.23-1.17-.38-.04,0-.08-.04-.09-.09-.02-.04-.02-.06-.02-.09Zm3.37,4.26c-.06-.09-.09-.21-.11-.32-.04-.11-.04-.23-.02-.36l.85-1.76c-.08-.11-.11-.25-.13-.36-.02-.11-.02-.25-.02-.38,0-.08.02-.17.06-.25.02-.09.06-.19.09-.27.04-.08.08-.11.13-.13.04-.02.11-.04.19-.04l.59.08c.09.04.19.08.27.15.06.08.09.17.11.27.02.11.02.23.02.34,0,.13-.02.25-.06.32l-.81,2.12c-.09.19-.21.34-.36.47-.17.15-.36.25-.55.28-.08.02-.13,0-.17-.04-.04-.02-.08-.06-.08-.13Zm3.16.53c-.11-.15-.17-.34-.17-.55s.04-.4.11-.59c.08-.45.11-.91.15-1.4.02-.47.02-.95-.02-1.42,0-.11-.02-.25-.06-.4-.04-.13-.09-.27-.15-.4-.15-.19-.25-.42-.25-.68-.02-.25.04-.49.15-.74.02-.06.06-.11.13-.15.08-.04.13-.08.21-.08.15.02.32.08.47.15.15.08.28.19.4.3.09.13.17.27.21.4.02.15.02.28.02.44-.04.17-.04.32-.04.45s0,.28.04.44l.02,4.03c0,.15-.04.3-.11.45-.09.15-.21.25-.32.36-.04.04-.09.04-.15.04-.06-.02-.09-.04-.13-.08l-.51-.59Zm2.31-4.13l.78-.04c.08,0,.13.04.21.09.08.08.11.13.11.21l.28,2.18c.02.13,0,.26-.04.38-.06.11-.13.21-.25.28-.04,0-.08,0-.09-.02-.04,0-.08-.02-.09-.06-.15-.19-.26-.42-.38-.66-.11-.23-.17-.47-.21-.72-.17-.19-.3-.42-.4-.64-.09-.23-.13-.45-.13-.72,0-.08.02-.13.08-.17.02-.06.06-.09.13-.11Z"/>
          <path class="cls-2" d="m95.71,14.32c0-.11.04-.21.11-.3.06-.08.13-.13.25-.17,1.42-.23,2.86-.4,4.32-.55,1.44-.13,2.88-.21,4.36-.25l.09-.68c.02-.11,0-.23-.04-.34-.04-.09-.11-.19-.19-.27-.13-.11-.23-.25-.28-.4-.08-.15-.11-.3-.11-.49,0-.11.04-.21.11-.32.06-.09.13-.17.25-.23.13-.08.28-.13.45-.15.15,0,.32.04.47.09l.45.21c.08.06.13.13.17.21.02.08.02.17.02.25-.02.15-.04.27-.04.38,0,.13-.02.26-.02.4l-.02,1.4c1.27-.02,2.54-.02,3.83.02,1.29.04,2.56.11,3.83.19.08.02.15.06.23.09.04.08.08.13.09.21.02.25,0,.49-.04.72-.06.23-.13.45-.25.64-.06.08-.11.11-.17.13-.06.02-.11.02-.17,0-1.21-.27-2.44-.45-3.66-.59-1.23-.11-2.46-.17-3.67-.15v1.59l2.75.02c.11-.11.27-.19.45-.21.19,0,.36.04.51.13l.25.25c.04.11.08.21.09.32s.02.23,0,.32l.02,3.13c0,.34-.04.68-.11,1.02-.08.34-.19.66-.34.97-.02.04-.04.08-.06.08-.02.04-.04.04-.08.04-.04.02-.06.02-.09,0-.04,0-.06-.02-.08-.06l-.38-.51c-.08-.08-.11-.19-.13-.32-.04-.11-.04-.25,0-.36l.32-3.71-3.14-.11v6.65c0,.15-.02.28-.04.44-.04.15-.08.3-.13.44-.04.06-.08.11-.11.17-.06.04-.11.08-.17.11l-.36.04c-.06,0-.11,0-.15-.02-.06-.04-.09-.08-.11-.11-.08-.21-.13-.42-.17-.64-.04-.21-.06-.44-.04-.66l.11-6.29-1.97.32c-.08.8-.25,1.55-.49,2.31-.27.74-.62,1.44-1.04,2.1-.11.19-.28.32-.47.4-.21.08-.42.08-.61,0-.3-.08-.59-.23-.85-.42s-.49-.42-.68-.68c-.04-.04-.06-.11-.06-.19-.02-.08-.02-.13.02-.21.02-.04.06-.09.13-.15.04-.02.11-.04.19-.06.09-.02.21-.04.32-.04.09.04.19.06.3.06.15.06.32.06.49,0,.15-.04.28-.11.42-.23.34-.36.61-.76.83-1.21.21-.45.34-.93.42-1.42-.15-.04-.3-.11-.45-.21-.15-.08-.27-.19-.38-.32-.04-.04-.08-.11-.11-.19-.04-.08-.04-.15-.02-.23,0-.09.02-.21.06-.32.02-.11.06-.23.13-.34,0-.04.04-.06.09-.09.04-.02.08-.04.13-.04l3.47.04.04-1.55c-1.44-.04-2.88.06-4.28.27-1.42.21-2.82.51-4.2.91-.08.04-.13.04-.17,0-.08,0-.11-.04-.15-.11-.11-.17-.17-.36-.21-.55-.06-.19-.08-.4-.08-.59Z"/>
          <path class="cls-2" d="m115.48,22.01s.08-.09.13-.13c.06-.02.11-.04.19-.04l8.07-.04,8.07.13c.19.04.32.13.42.28.09.15.11.32.08.49-.09.21-.21.4-.36.59-.15.19-.32.36-.51.47-.11.06-.23.09-.34.09-.13.02-.25.02-.34-.02-2.5-.63-5.04-.95-7.59-.95s-5.11.32-7.59.95c-.09.04-.17.02-.25-.02-.08-.04-.13-.09-.17-.17-.08-.27-.09-.55-.06-.85.02-.28.11-.55.27-.8Zm2.59-7.71c0-.15.06-.26.17-.38.08-.11.21-.19.36-.23.76-.08,1.52-.11,2.27-.15.76-.04,1.52-.06,2.27-.06.08-.17.09-.36.08-.55-.04-.17-.11-.32-.23-.47-.06-.04-.09-.09-.13-.15-.04-.06-.08-.11-.08-.19l.04-.38c0-.06.02-.11.06-.19.04-.06.08-.11.13-.17.09-.11.23-.19.4-.23.15-.04.3-.06.45-.02.08.04.17.06.25.06.08.04.13.06.21.09l.15.13s.06.08.08.11c.02.04.04.08.04.11.02.32,0,.64-.04.95-.06.3-.11.61-.19.91.72.02,1.48.04,2.25.06.76.04,1.52.09,2.27.15.11.02.19.08.27.17.08.11.09.23.06.34-.08.17-.15.34-.27.49-.13.15-.26.28-.42.38-.08.04-.17.08-.25.08-.08.02-.17.02-.25,0-1.55-.27-3.12-.38-4.68-.34-1.59.08-3.12.3-4.64.68-.11.02-.19,0-.26-.04-.09-.04-.15-.11-.17-.19-.09-.15-.15-.3-.19-.49-.04-.15-.04-.32-.02-.49Zm1.89,1.04l.93.49c.08.04.13.09.19.15.04.08.04.15.04.23-.02.8-.08,1.57-.17,2.33-.11.8-.25,1.55-.42,2.31-.02.04-.04.06-.06.06-.04.02-.06.02-.08.02-.04.02-.08.02-.09,0-.04,0-.06-.02-.06-.06-.15-.55-.25-1.12-.28-1.69-.06-.57-.08-1.12-.04-1.69-.02-.09-.04-.19-.06-.3-.04-.08-.09-.17-.13-.27l-.23-.28c-.06-.08-.08-.15-.08-.25-.02-.08,0-.17.04-.26l.49-.8Zm6.14.57c.06-.08.11-.13.19-.17.08-.02.17-.02.25,0l.44.19c.13.08.25.17.34.3.08.15.09.28.09.44-.11.7-.28,1.38-.47,2.06-.21.68-.45,1.34-.74,1.99-.04.06-.08.09-.11.13-.04.04-.08.08-.13.09l-.17.06h-.09s-.06-.02-.06-.04c-.02-.02-.02-.04-.02-.06-.02-.04-.02-.06,0-.09-.02-.53.02-1.04.09-1.55.08-.51.21-1.02.36-1.52.04-.09.04-.19.04-.28-.02-.09-.06-.19-.09-.26l-.3-.49s-.02-.06,0-.11c0-.04,0-.06.02-.09l.38-.59Z"/>
          <path class="cls-2" d="m140.61,18.54c.84-.32,1.7-.65,2.62-.95.89-.27,1.81-.49,2.73-.68.27-.03.54-.08.81-.14.27-.05.51-.14.76-.24.35-.14.7-.22,1.08-.24.35,0,.7.03,1.08.14-.08.27-.24.51-.46.73-.22.22-.46.32-.73.38-.6.19-1.14.38-1.68.57-.54.22-1.08.46-1.6.73-.73.32-1.43.65-2.11,1.03-.7.38-1.35.76-2,1.16-.11.11-.22.14-.32.08-.11,0-.22-.08-.27-.19-.19-.3-.3-.62-.35-.97-.05-.32-.03-.68.08-1.03,0-.08.05-.16.11-.24.05-.05.14-.11.24-.14Zm.54-6.3c.19-.03.38-.08.59-.14.16-.03.35-.08.54-.16.35-.11.7-.16,1.08-.22.35-.05.7-.05,1.06-.03.27.03.57.03.84.03.24,0,.51-.05.81-.11.32-.05.7-.08,1.08-.03.35.05.7.19,1.03.38l.46.38c.05.05.08.14.08.22s-.03.14-.08.19c-.27.19-.57.32-.84.41-.3.11-.59.16-.92.16-.95,0-1.87.05-2.76.22-.92.16-1.84.43-2.71.76-.14.05-.27.08-.38.03-.16-.03-.24-.11-.3-.24-.16-.22-.22-.49-.22-.76s.05-.54.22-.78c0-.08.05-.16.16-.22.05-.03.14-.05.24-.08Zm.76-4.9c1.16-.11,2.33-.19,3.52-.24,1.19-.03,2.35-.03,3.54.03.19,0,.38.05.54.16.16.11.3.27.38.43l.35.68c.05.11.08.19.08.27-.03.11-.08.19-.13.24l-.41.43c-.05.11-.14.16-.24.16-.11.03-.22.03-.3-.03-.87-.22-1.76-.38-2.65-.46-.89-.05-1.79-.05-2.68,0-.32.05-.65.14-.97.22-.32.08-.65.16-.97.27-.05.05-.14.08-.22.03-.11-.03-.16-.08-.19-.19-.11-.27-.19-.54-.19-.81-.03-.27,0-.57.05-.84.05-.08.11-.16.22-.24.08-.05.16-.08.27-.11Zm10.04-.68c.81-.22,1.62-.38,2.43-.54.81-.14,1.65-.24,2.49-.35l-.27-.6c-.05-.05-.05-.14-.03-.22,0-.08.03-.14.11-.19.16-.16.32-.32.51-.46.19-.11.38-.24.57-.38.11-.05.22-.08.32-.08s.19,0,.3.05c.16.11.3.19.43.3.13.11.27.22.41.32.05.11.14.19.19.3.05.11.08.22.11.32v.46h1.19c.38,0,.78.03,1.19.05l.62-.95-.22-.32c-.05-.05-.05-.11-.05-.19,0-.05,0-.14.05-.22.08-.14.19-.27.32-.41.11-.14.22-.24.35-.35.05-.05.11-.08.19-.11.05,0,.13.03.22.03l1,.41c.05.05.08.11.11.16,0,.08,0,.14-.05.19l-1.11,1.89c.22.08.41.16.62.22.22.08.41.16.6.24.05.05.08.08.13.14v.16c-.11.22-.22.43-.32.65-.14.22-.3.38-.46.54-.08.08-.16.14-.27.16-.14.05-.24.05-.35,0-.65-.08-1.27-.16-1.87-.22-.65-.03-1.27-.03-1.89-.03l.03,2.38c.57,0,1.14.05,1.73.11.57.05,1.16.16,1.76.27l.62-.35c.43.05.84.24,1.19.51.35.3.59.65.7,1.06l.51,12.55c.03.19-.03.35-.16.51-.16.14-.35.19-.51.16l-1.08-.43c-.11-.08-.19-.19-.24-.32-.05-.11-.08-.22-.08-.35l-.19-5.33h-2.11c-.7,0-1.41.03-2.11.05l.03,2.95c-.05.73-.14,1.46-.27,2.16-.16.73-.38,1.43-.62,2.14-.05.11-.14.19-.24.24-.14.03-.27,0-.38-.05l-.46-.41c-.11-.11-.19-.22-.22-.32-.05-.14-.08-.27-.03-.38l.03-6.11c-.78.11-1.57.19-2.33.3-.76.11-1.51.27-2.27.43l-.22-1.27c-.24.51-.51,1-.78,1.46-.32.49-.65.92-1,1.35-.22.22-.46.41-.73.57s-.57.27-.89.3c-.54.11-1.06.16-1.6.16-.54.03-1.08.03-1.62,0l.16-.87c.03-.11.08-.19.19-.24.08-.05.19-.08.3-.08.76-.11,1.46-.35,2.14-.73s1.24-.89,1.7-1.49c.62-.87,1.11-1.81,1.49-2.84.32-1,.54-2.06.59-3.14l-.54-.16c-.16-.11-.27-.24-.38-.41-.11-.16-.16-.32-.19-.51-.03-.11-.03-.19.03-.3,0-.08.05-.16.13-.24.11-.11.22-.19.32-.3.11-.05.22-.14.35-.22.05-.03.11-.05.19-.05.05,0,.11.03.19.05l.68.65c.65-.22,1.3-.43,2-.6.65-.16,1.35-.27,2.06-.35v-2.41c-.84.11-1.65.24-2.46.43s-1.6.41-2.35.68c-.11.05-.22.08-.32.05-.14,0-.22-.05-.27-.14-.16-.16-.24-.38-.3-.62-.05-.22-.03-.46.08-.68.03-.14.05-.27.11-.43.03-.14.05-.27.08-.41Zm1.51,8.79c-.08.38-.16.73-.24,1.08-.11.35-.22.68-.35,1,.73-.16,1.49-.3,2.25-.41.76-.11,1.52-.19,2.3-.24l-.03-1.7c-.68.05-1.33.08-1.97.11-.65.05-1.3.11-1.95.16Zm.19-2.89l-.03,1.38c.62-.05,1.24-.14,1.87-.19.62-.05,1.27-.08,1.92-.11l-.03-1.92c-.65.11-1.3.22-1.92.35-.59.16-1.22.32-1.81.49Zm5.9-.97v2h1.52c.49,0,1,.03,1.51.05.22.03.41.08.62.19.16.11.32.24.49.41l-.08-2.98c-.22.24-.49.41-.76.46-.3.11-.59.11-.87,0-.16-.03-.32-.05-.49-.08-.16-.03-.32-.05-.49-.08h-.73c-.27,0-.51.03-.73.03Zm.05,5.25c.43,0,.87.03,1.35.03.43.03.89.05,1.33.05.27.05.51.11.78.22.24.08.49.19.73.32l-.08-2.46c-.7,0-1.38.03-2.08.03-.7.03-1.38.05-2.06.05l.03,1.76Z"/>
          <path class="cls-2" d="m171.16,10.56l.03-2.81-.27-.35c-.08-.05-.13-.11-.16-.22-.05-.11-.05-.19-.03-.3.08-.27.19-.54.32-.81.11-.27.27-.54.46-.78.03,0,.08-.03.14-.05h.16c.3.11.6.19.87.3.27.14.54.3.78.46.05.05.08.14.11.19v.22c-.03.19-.05.38-.11.6-.05.22-.16.38-.27.54-.08.11-.14.19-.16.27-.03.11-.03.19,0,.3l-.03,2.52h2.46c.11,0,.19,0,.27.03.08.05.14.14.19.24.05.14.08.27.13.41.03.16.05.3.08.43l-.81.87c-.11.11-.24.16-.35.22-.16.05-.3.05-.43,0l-1.6-.08.05,4.76,2.76-.46.19.14c.05.08.11.16.13.27,0,.08,0,.16-.05.27-.11.19-.24.35-.38.49-.16.16-.35.3-.57.41l-6.6,2.22c-.14.05-.24.08-.35.03-.14-.03-.24-.11-.3-.22l-.76-1.06c-.05-.08-.08-.19-.08-.32,0-.11.03-.22.11-.32l.32-.62,3.65-.54.08-5-2.19-.08-.54.49c-.11.08-.19.11-.3.08-.11,0-.22-.05-.27-.16l-.73-1.6c-.05-.05-.08-.14-.05-.24,0-.05.05-.11.14-.16l.43-.35c.05-.05.11-.08.19-.11.05,0,.14-.03.22-.03l3.11-.03Zm2.11,9.93l.35-.57,1.06-.08c.49-.03.95-.19,1.33-.51.38-.27.65-.65.81-1.14.43-1.03.73-2.08.89-3.22.13-1.11.13-2.25.03-3.38-.03-.16-.08-.3-.16-.43-.08-.14-.19-.24-.32-.35l-.41-.3s-.05-.05-.05-.11c-.03-.03-.03-.05-.03-.11l.05-.38c0-.05,0-.14.03-.22,0-.05.05-.11.13-.16l1.11-.73c.03-.05.08-.08.16-.08.05,0,.08.03.14.08l.41.27c.14-.05.27-.11.43-.16.14-.03.3-.05.46-.05l3.57-.08-.11-.78c-.05-.11-.05-.22-.03-.32,0-.11.05-.19.14-.3l.51-1.3c.05-.11.13-.19.22-.27.11-.05.19-.11.3-.16.22-.05.46-.08.7-.08.22.03.46.08.68.16.08.11.14.22.14.32s0,.22-.05.32c-.16.22-.35.41-.51.57-.19.22-.38.41-.57.57-.05.08-.11.16-.14.24-.05.08-.05.16-.03.27l.11.81h3.14l.78-1.73c.05-.14.11-.27.13-.43,0-.16,0-.32-.05-.49l-.11-.32c-.05-.05-.05-.08-.03-.14,0-.05,0-.08.03-.14l.3-.35c.05-.05.14-.11.24-.16h.24l1.3.68c.08.11.14.19.16.3,0,.11,0,.22-.05.3l-1.27,2.43.97.05c.05,0,.08.03.14.03.03.03.05.05.11.05l.38.51c.03.05.05.08.05.14s-.03.11-.03.16l-.43.78c-.05.11-.14.19-.24.24-.11.05-.19.08-.3.05l-4.76-.14c.27.87.6,1.68.97,2.46.38.81.81,1.6,1.3,2.35l.24-.95c0-.11.08-.24.19-.35.08-.08.19-.14.35-.14l.81.03c.05,0,.14.03.24.05.08.05.13.14.19.22l.27.57c.03.11.05.19.05.24,0,.11-.03.19-.05.27l-.84,2.27c.32.38.68.76,1.06,1.14.35.38.73.76,1.11,1.14.08.11.19.19.35.22.13.05.27.08.43.03l.97-.08c.05,0,.11.03.16.03s.08.03.11.05c.03.05.05.08.05.14v.16l-1.06,2.16c-.11.11-.22.19-.32.24-.14.05-.27.08-.38.08l-.65-.08c-.11,0-.19-.03-.27-.08-.11-.05-.22-.11-.3-.19-.41-.38-.78-.81-1.14-1.24-.38-.43-.73-.87-1.08-1.33l-1.08,3.19c-.05.14-.11.24-.16.3-.08.11-.19.16-.3.22l-.46.24c-.05.03-.13.03-.19,0-.08,0-.14-.05-.14-.14l-.19-.27c-.05-.05-.08-.11-.08-.16s0-.11.03-.16l1.33-5.41c-.38-.62-.73-1.24-1.05-1.89s-.6-1.3-.84-1.97c.08,1.33-.11,2.6-.57,3.79-.49,1.24-1.16,2.3-2.06,3.22-.14.11-.27.19-.43.19-.16.05-.32.03-.46-.08l-1.73-1.03c-.08-.03-.14-.08-.16-.19-.05-.05-.08-.14-.05-.24,0-.08.03-.16.11-.24.05-.05.11-.11.22-.14l.97-.22c.16-.03.32-.08.49-.16.11-.05.24-.16.35-.32.35-.49.65-1.06.87-1.65.22-.6.35-1.19.46-1.79l-3.17.32c-.16,1.14-.49,2.19-.95,3.19-.49,1.03-1.11,1.97-1.84,2.81-.16.16-.38.24-.59.24-.22.03-.43-.03-.62-.14l-2.52-1.11Zm6.41-6.93l3.46-.16c.11-.05.19-.11.3-.16.11-.03.22-.03.32.03l.76.27c-.11-.49-.22-1-.32-1.49-.14-.49-.27-.97-.43-1.46l-3.44-.03c-.16,0-.32.05-.46.16-.14.16-.19.32-.19.49v2.35Z"/>
          <path class="cls-2" d="m198.8,9.83c.19-.11.38-.24.57-.35.16-.11.38-.22.6-.32.11-.05.22-.08.32-.03.11.05.16.11.22.22.57,2.11.6,4.22.11,6.33-.51,2.14-1.49,4-2.89,5.6-.62,0-1.24-.08-1.84-.22-.62-.11-1.22-.27-1.79-.49-.11-.03-.16-.08-.16-.16-.05-.08-.03-.16.03-.24l.24-.35c.65-.14,1.27-.38,1.87-.73.59-.32,1.11-.76,1.54-1.3.65-1.06,1.08-2.19,1.35-3.44.27-1.22.32-2.46.16-3.71l-.32-.81Zm6.98,11.61l.14-12.85c.03-.11.03-.24,0-.38-.05-.11-.11-.22-.22-.32-.13-.11-.27-.22-.38-.35-.13-.11-.24-.27-.32-.43-.03-.05-.05-.11-.05-.19,0-.05,0-.14.05-.19.05-.19.19-.38.35-.6.14-.16.3-.32.51-.49.05-.03.14-.05.22-.08.05,0,.11-.03.19-.03.32,0,.68.08,1,.19.3.16.54.38.76.65.05.14.14.27.19.41.03.16.03.32,0,.46-.08.27-.14.54-.16.78-.03.27-.03.54,0,.81l-.16,13.23c-.05.38-.16.68-.35.95-.22.3-.51.49-.84.57-.32-.27-.54-.6-.68-.97-.16-.35-.24-.73-.24-1.16Zm7.28-10.82l-.35-.65c-.08-.05-.13-.14-.13-.24,0-.08.03-.16.08-.27l.43-.81c0-.05.05-.08.14-.14h.16l1.41.46.32.57c-.27,1.24-.27,2.52,0,3.76.27,1.24.78,2.38,1.54,3.38.46.6,1.03,1.06,1.7,1.38.65.35,1.38.49,2.14.43l.05.6c-.22.49-.49.92-.76,1.33-.27.43-.6.81-.95,1.16-.16.11-.32.16-.49.16-.22,0-.38-.08-.51-.22-1.46-1.46-2.62-3.11-3.44-4.98-.84-1.89-1.3-3.87-1.35-5.92Z"/>
          <path class="cls-2" d="m234.89,14.24c-.7-.38-1.38-.78-2.08-1.22-.7-.43-1.38-.87-2.03-1.33-.11-.05-.22-.11-.27-.22-.08-.11-.14-.22-.16-.32-.05-.08-.05-.19-.05-.3-.03-.11-.03-.22-.03-.32,0-.08.05-.16.11-.22s.14-.08.24-.08c1.24-.11,2.52-.19,3.79-.22,1.24,0,2.52.05,3.79.14l.22-.35c.05-.03.11-.05.16-.05s.08.03.14.03c.11.05.22.14.35.19.11.05.24.14.35.22.05.05.08.11.08.16v.19c-.51.76-1.08,1.49-1.68,2.14-.6.68-1.24,1.3-1.92,1.87l.6,1c.92-.05,1.89-.11,2.87-.11s1.92.03,2.89.05c.43.05.89.05,1.35,0,.46,0,.92-.03,1.35-.08.3-.05.6-.11.92-.11s.62.03.92.08c.11.05.22.11.27.22.05.11.05.22,0,.32-.22.38-.49.7-.81.95-.32.24-.7.43-1.08.6-.27.08-.51.14-.78.14-.3.05-.57.05-.84-.05-1.19-.22-2.38-.38-3.6-.43-1.22-.08-2.41-.05-3.6.05-.11.92-.27,1.81-.51,2.68-.27.92-.62,1.76-1.03,2.57-.54.81-1.24,1.51-2.06,2.08-.81.54-1.7.92-2.68,1.14-.57.11-1.14.16-1.7.19-.6,0-1.16,0-1.76-.05-.87-.16-1.73-.35-2.54-.57-.87-.27-1.68-.54-2.49-.87-.08,0-.13-.05-.16-.14-.05-.05-.05-.11,0-.19l.16-.54c.03-.05.08-.08.16-.14h.16c.81.24,1.68.41,2.54.51.84.11,1.7.11,2.57.03.92-.11,1.84-.32,2.7-.68.87-.35,1.68-.81,2.43-1.41.65-.65,1.24-1.41,1.76-2.22.49-.81.89-1.65,1.19-2.54-.73.05-1.46.08-2.16.14-.73.05-1.46.16-2.16.27-.7.05-1.38.19-2.06.38-.7.19-1.35.43-1.98.73-.11.05-.19.08-.3.03-.11,0-.22-.05-.27-.16-.11-.22-.16-.46-.19-.68-.05-.24-.05-.51,0-.78,0-.11.08-.24.19-.35.11-.11.22-.16.35-.22,1.43-.24,2.89-.46,4.38-.62,1.46-.14,2.95-.24,4.41-.3l-.84-.78c0-.11.05-.19.16-.3.05-.05.14-.11.24-.14Zm-7.41-4.6c-.08.54-.19,1.08-.35,1.6-.16.54-.35,1.06-.59,1.54-.22.38-.43.76-.65,1.08-.22.38-.46.7-.68,1.03.14-.62.27-1.27.41-1.92.11-.65.19-1.3.27-1.95.03-.32,0-.65-.08-.97-.11-.3-.27-.6-.46-.87-.16-.11-.3-.27-.41-.43-.11-.16-.19-.32-.24-.54-.03-.05-.03-.14,0-.22,0-.05.05-.11.11-.16.08-.08.19-.16.32-.24.11-.05.24-.08.41-.11l4.57-.27c-.14-.35-.3-.7-.49-1.06-.22-.32-.49-.6-.76-.87-.05-.05-.11-.11-.11-.19-.03-.05-.03-.11,0-.19,0-.05.05-.14.11-.19.03-.05.08-.08.16-.14l1.11-.35c.16-.05.35-.03.51.03.16.08.3.19.35.32.19.43.3.87.32,1.3,0,.46-.05.89-.22,1.3h2.6c0-.46,0-.95-.05-1.43-.08-.46-.19-.92-.3-1.38-.08-.22-.05-.46.11-.68.11-.22.3-.35.54-.41h.65c.22.05.43.11.62.22.13.11.27.24.38.41.05.19.11.38.11.54-.05.49-.16.97-.3,1.41-.16.49-.35.92-.59,1.3l2.81.08c.05-.32.11-.62.19-.95.05-.32.11-.62.13-.95v-.3c0-.11-.05-.19-.11-.3l.3-.84c.24-.11.49-.16.73-.19.24-.03.49-.03.76.03.14.05.24.16.35.3.08.16.11.32.08.49-.11.49-.24.97-.38,1.41-.16.49-.35.92-.54,1.35l4.87.32c.27,0,.51.11.73.27.19.19.32.41.38.68.11.76.08,1.51-.14,2.25-.22.76-.54,1.46-1,2.06-.11-.51-.19-1.06-.19-1.62s.05-1.06.19-1.6c0-.24-.05-.46-.19-.65-.16-.16-.38-.27-.6-.3-2.65-.38-5.3-.51-7.93-.35-2.68.16-5.3.6-7.85,1.3Zm5.33,2.08c.41.38.81.78,1.22,1.16.38.41.73.84,1.11,1.27.38-.51.76-1.03,1.16-1.54.41-.49.87-.95,1.35-1.43-.81,0-1.65.03-2.46.08-.81.11-1.6.24-2.38.46Z"/>
          <path class="cls-2" d="m259.78,7.77l4.33-.05.11-1.68c-.19-.08-.32-.19-.43-.3-.13-.11-.27-.22-.38-.32-.05-.05-.08-.16-.08-.27s.05-.19.11-.24c.14-.16.3-.32.51-.46.19-.11.41-.19.65-.27.05-.03.14-.05.19-.05s.14.03.22.05c.08.08.19.16.32.22.08.11.19.19.3.27.08.11.14.24.19.38.05.16.08.32.08.49v1.08c-.05.38-.11.73-.13,1.11h7.06c.11.03.22.08.3.16.05.11.08.19.08.3-.08.27-.16.54-.27.76-.14.27-.27.49-.43.7-.08.11-.16.16-.27.19-.11.05-.22.08-.32.08-.22,0-.41,0-.57-.03-.19,0-.38-.03-.57-.05l-2.84-.19c.27.49.59.89,1.03,1.24.41.38.87.65,1.38.87.38.16.78.35,1.19.51.38.16.78.35,1.16.54.03.03.05.05.11.08.03.05.05.08.08.14,0,.05-.03.11-.03.14-.03.05-.05.11-.08.14-.16.19-.35.35-.54.51-.22.16-.41.32-.62.43-.11.11-.24.14-.41.14-.16.03-.32,0-.46-.08-.49-.27-.97-.54-1.46-.87-.49-.27-.97-.6-1.41-.95.05.22.05.43.03.65s-.08.41-.19.6c-.27.62-.54,1.22-.81,1.81-.32.57-.65,1.11-1,1.65.78.73,1.6,1.41,2.43,2.03.81.65,1.68,1.3,2.54,1.89.3.16.62.24.97.3.35.05.7.03,1.03-.05l1.06-.38.54.51c.05.08.11.16.13.24,0,.11,0,.19-.03.27-.35.6-.76,1.11-1.22,1.6-.49.49-1.03.89-1.6,1.27-.22.11-.43.14-.65.11-.22-.05-.43-.14-.59-.3-1.03-.87-2-1.81-2.98-2.79-.97-.95-1.89-1.92-2.76-2.95-.54.73-1.11,1.41-1.7,2.06-.62.65-1.27,1.24-1.98,1.79-.35.27-.73.41-1.14.41-.43.05-.81-.03-1.16-.24-.49-.32-.95-.68-1.38-1.06-.43-.38-.84-.78-1.22-1.22l.65-.7c.11.11.24.22.38.27.11.11.24.19.41.24.38.22.78.3,1.22.24.41,0,.81-.14,1.19-.38.62-.41,1.22-.87,1.76-1.41.54-.54,1.03-1.11,1.49-1.76l-1.68-1.89-.16-1.03c-.16.16-.35.3-.57.41-.22.14-.43.24-.65.32-.11.05-.22.05-.32.05s-.24,0-.35-.05l-1-.3-.43.6c-.05.11-.11.19-.19.19-.11.05-.19.05-.27-.03l-1.76-.95-.3,8.87c0,.11-.03.24-.08.38-.05.14-.11.24-.16.35l-.43.43c-.05.05-.14.05-.19.05-.08,0-.14-.03-.16-.08-.19-.27-.35-.57-.49-.89-.16-.3-.27-.62-.38-.95-.05-.11-.05-.22-.03-.32,0-.11.05-.19.11-.3.11-.14.19-.3.24-.46s.08-.32.08-.49l.19-5.49c-.57.7-1.16,1.41-1.79,2.08-.65.65-1.3,1.27-2,1.84-.16.05-.3.08-.43.08-.16.03-.3,0-.43-.05-.32-.14-.62-.32-.89-.54-.27-.19-.51-.43-.73-.73t-.03-.05c-.03-.05-.03-.11,0-.16,0-.03.03-.05.08-.05,0-.03.03-.05.08-.05l.54.05c1.14-.76,2.14-1.7,3.03-2.79.87-1.08,1.54-2.27,2.06-3.57-.57,0-1.14.03-1.68.08-.59.08-1.14.22-1.65.38-.19-.16-.32-.38-.43-.6-.14-.22-.22-.46-.24-.7-.03-.05-.03-.14-.03-.22s.05-.16.11-.24l.19-.41c.05-.11.11-.19.22-.24.08-.05.19-.08.3-.08h3.98l.05-2.06c0-.22-.03-.41-.05-.62-.05-.19-.16-.38-.27-.54-.14-.16-.22-.32-.27-.51-.05-.19-.05-.38-.03-.57l.76-.73c.05-.05.11-.08.22-.08.08,0,.16,0,.24.03.22.14.41.3.57.46.16.22.27.41.38.6.05.14.08.27.11.41.03.14.03.27.03.41l-.14,3.22,1.65.03c.05,0,.14.03.19.05.05.05.11.08.16.14l.24.35c0,.11.03.19.03.27s-.03.16-.05.24c-.08.16-.16.32-.27.46-.11.16-.24.3-.35.43l-1.7.11-.08,1.16,2.49,1.51.13-.6c0-.11.05-.19.14-.24.05-.05.16-.11.27-.14.51-.05,1-.24,1.46-.57.43-.3.78-.68,1.06-1.16.05-.16.11-.32.13-.51,0-.16-.05-.35-.13-.54l.68-1h-1.54c-.22,0-.41,0-.57.03-.22.05-.38.14-.54.24-.19-.22-.32-.46-.38-.73-.08-.24-.11-.51-.08-.81l.7-.6Zm2.62,1.87c.14.24.27.46.41.68.16.24.3.49.41.73.05.16.08.35.08.54,0,.22-.05.41-.16.57-.22.32-.43.65-.62.95-.22.32-.46.62-.7.89l.97.22,1.65,1.57,1.24-2.25.11-.76c0-.05,0-.14.05-.19.03-.05.08-.08.16-.11.27-.05.54-.08.81-.11.27-.03.54-.03.81-.03-.16-.05-.27-.16-.32-.32-.08-.14-.11-.3-.11-.46l.43-1.92h-5.22Z"/>
        </g>
        <path class="cls-2" d="m274.61,31.62H57.95c-.22,0-.39-.18-.39-.39s.18-.39.39-.39h216.65c.22,0,.39.18.39.39s-.18.39-.39.39Z"/>
        <g>
          <path class="cls-2" d="m72.23,42.43c0,2.25-1.16,3.13-2.66,3.13-1.4,0-2.51-.82-2.51-3.08v-4.53h.82v4.54c0,1.7.75,2.39,1.73,2.39,1.08,0,1.8-.73,1.8-2.39v-4.54h.82v4.48Z"/>
          <path class="cls-2" d="m76.32,40.76c-.09,0-.18-.02-.3-.02-.89,0-1.34.88-1.34,1.78v2.91h-.82v-3.76c0-.57,0-1.09-.04-1.6h.72l.04,1.03h.03c.24-.67.8-1.15,1.46-1.15.09,0,.16.02.25.03v.78Z"/>
          <path class="cls-2" d="m80.79,44.16c0,.44,0,.91.08,1.28h-.75l-.08-.69h-.03c-.28.42-.83.81-1.59.81-1.02,0-1.57-.75-1.57-1.53,0-1.29,1.12-1.99,3.11-1.98,0-.45,0-1.48-1.22-1.48-.46,0-.95.13-1.31.38l-.2-.56c.43-.29,1.03-.45,1.63-.45,1.52,0,1.91,1.07,1.91,2.14v2.08Zm-.81-1.51c-1.01,0-2.28.15-2.28,1.28,0,.69.43.99.93.99.8,0,1.36-.61,1.36-1.26v-1.01Z"/>
          <path class="cls-2" d="m84.88,40.89c-.2-.13-.56-.32-1.04-.32-.59,0-.91.36-.91.8,0,.46.31.68.99.97.87.35,1.37.81,1.37,1.61,0,.95-.73,1.59-1.9,1.59-.53,0-1.04-.15-1.41-.36l.23-.63c.29.17.75.36,1.21.36.72,0,1.07-.38,1.07-.87s-.29-.78-.99-1.06c-.91-.36-1.37-.87-1.37-1.52,0-.84.67-1.53,1.75-1.53.51,0,.95.15,1.23.33l-.24.62Z"/>
          <path class="cls-2" d="m91.1,42.71c0,2-1.32,2.85-2.51,2.85-1.38,0-2.44-1.03-2.44-2.77,0-1.83,1.14-2.85,2.51-2.85,1.47,0,2.44,1.12,2.44,2.77Zm-2.47-2.13c-1.16,0-1.64,1.14-1.64,2.18,0,1.19.66,2.16,1.62,2.16s1.65-.96,1.65-2.18c0-.96-.46-2.16-1.63-2.16Z"/>
          <path class="cls-2" d="m96.15,45.22c-.31.15-.87.33-1.68.33-1.57,0-2.5-1.1-2.5-2.71,0-1.68.95-2.89,2.39-2.89,1.65,0,2.08,1.52,2.08,2.45,0,.19,0,.32-.02.45h-3.65c0,1.49.86,2.05,1.82,2.05.67,0,1.07-.14,1.41-.28l.16.59Zm-.52-2.97c0-.73-.3-1.67-1.35-1.67-.98,0-1.42.94-1.5,1.67h2.85Z"/>
          <path class="cls-2" d="m107.06,45.44h-.81l-.19-3.38c-.06-1.07-.14-2.46-.13-3.23h-.03c-.25.85-.55,1.77-.92,2.82l-1.34,3.76h-.6l-1.25-3.68c-.36-1.08-.65-2.03-.86-2.89h-.03c-.02.92-.08,2.16-.15,3.31l-.21,3.3h-.78l.52-7.5h1l1.32,3.81c.32.94.56,1.73.76,2.51h.03c.19-.76.44-1.55.78-2.51l1.37-3.81h1.02l.47,7.5Z"/>
          <path class="cls-2" d="m112.7,44.01c0,.55.03,1.01.05,1.43h-.74l-.04-.85h-.03c-.25.42-.8.96-1.71.96-.81,0-1.76-.46-1.76-2.31v-3.17h.82v3.02c0,1.04.31,1.77,1.2,1.77.64,0,1.4-.51,1.4-1.46v-3.34h.82v3.94Z"/>
          <path class="cls-2" d="m118.61,45.44h-.82v-3.17c0-.88-.32-1.64-1.25-1.64-.7,0-1.41.59-1.41,1.53v3.29h-.82v-3.99c0-.55-.02-.95-.04-1.39h.73l.05.88h.02c.27-.52.89-.99,1.72-.99.67,0,1.81.4,1.81,2.23v3.27Z"/>
          <path class="cls-2" d="m120.6,39.13c-.32,0-.53-.25-.53-.56s.23-.55.54-.55.53.25.53.55c0,.34-.23.56-.54.56Zm.41,6.31h-.82v-5.37h.82v5.37Z"/>
          <path class="cls-2" d="m126.26,45.24c-.24.12-.77.31-1.46.31-1.54,0-2.55-1.09-2.55-2.74s1.09-2.87,2.75-2.87c.6,0,1.08.18,1.29.29l-.21.66c-.23-.13-.58-.28-1.1-.28-1.24,0-1.89.99-1.89,2.15,0,1.3.78,2.12,1.86,2.12.53,0,.9-.15,1.16-.27l.15.63Z"/>
          <path class="cls-2" d="m127.81,39.13c-.32,0-.53-.25-.53-.56s.23-.55.54-.55.53.25.53.55c0,.34-.23.56-.54.56Zm.41,6.31h-.82v-5.37h.82v5.37Z"/>
          <path class="cls-2" d="m130.61,40.98c.37-.66.99-1.03,1.83-1.03,1.27,0,2.19,1.09,2.19,2.74,0,1.97-1.15,2.87-2.33,2.87-.71,0-1.3-.32-1.61-.86h-.02v2.93h-.82v-5.84c0-.7-.02-1.24-.04-1.73h.74l.05.92h.02Zm.05,2.32c0,1.04.78,1.6,1.51,1.6,1.05,0,1.63-.91,1.63-2.19,0-1.11-.56-2.1-1.6-2.1-.92,0-1.54.89-1.54,1.66v1.02Z"/>
          <path class="cls-2" d="m139.38,44.16c0,.44.01.91.08,1.28h-.75l-.08-.69h-.03c-.28.42-.83.81-1.59.81-1.02,0-1.57-.75-1.57-1.53,0-1.29,1.12-1.99,3.11-1.98,0-.45,0-1.48-1.22-1.48-.46,0-.95.13-1.31.38l-.2-.56c.43-.29,1.03-.45,1.63-.45,1.52,0,1.91,1.07,1.91,2.14v2.08Zm-.81-1.51c-1.01,0-2.28.15-2.28,1.28,0,.69.43.99.93.99.8,0,1.36-.61,1.36-1.26v-1.01Z"/>
          <path class="cls-2" d="m141.77,45.44h-.82v-7.88h.82v7.88Z"/>
          <path class="cls-2" d="m150.89,42.43c0,2.25-1.16,3.13-2.66,3.13-1.4,0-2.51-.82-2.51-3.08v-4.53h.82v4.54c0,1.7.75,2.39,1.73,2.39,1.08,0,1.8-.73,1.8-2.39v-4.54h.82v4.48Z"/>
          <path class="cls-2" d="m154.99,40.76c-.09,0-.18-.02-.3-.02-.89,0-1.34.88-1.34,1.78v2.91h-.82v-3.76c0-.57-.01-1.09-.04-1.6h.72l.04,1.03h.03c.24-.67.8-1.15,1.46-1.15.09,0,.16.02.25.03v.78Z"/>
          <path class="cls-2" d="m159.46,44.16c0,.44.01.91.08,1.28h-.75l-.08-.69h-.03c-.28.42-.83.81-1.59.81-1.02,0-1.57-.75-1.57-1.53,0-1.29,1.12-1.99,3.11-1.98,0-.45,0-1.48-1.22-1.48-.46,0-.95.13-1.31.38l-.2-.56c.43-.29,1.03-.45,1.63-.45,1.52,0,1.91,1.07,1.91,2.14v2.08Zm-.81-1.51c-1.01,0-2.28.15-2.28,1.28,0,.69.43.99.93.99.8,0,1.36-.61,1.36-1.26v-1.01Z"/>
          <path class="cls-2" d="m163.55,40.89c-.2-.13-.56-.32-1.04-.32-.59,0-.91.36-.91.8,0,.46.31.68.99.97.87.35,1.37.81,1.37,1.61,0,.95-.73,1.59-1.9,1.59-.53,0-1.04-.15-1.41-.36l.23-.63c.29.17.75.36,1.21.36.72,0,1.07-.38,1.07-.87s-.29-.78-.99-1.06c-.91-.36-1.37-.87-1.37-1.52,0-.84.67-1.53,1.75-1.53.51,0,.95.15,1.23.33l-.24.62Z"/>
          <path class="cls-2" d="m169.5,45.44h-.82v-3.17c0-.88-.32-1.63-1.24-1.63-.63,0-1.42.52-1.42,1.51v3.3h-.82v-7.88h.82v3.34h.02c.35-.59,1-.96,1.66-.96s1.79.4,1.79,2.23v3.27Z"/>
          <path class="cls-2" d="m171.49,39.13c-.32,0-.53-.25-.53-.56s.23-.55.54-.55.53.25.53.55c0,.34-.23.56-.54.56Zm.41,6.31h-.82v-5.37h.82v5.37Z"/>
          <path class="cls-2" d="m175.98,40.76c-.09,0-.18-.02-.3-.02-.89,0-1.34.88-1.34,1.78v2.91h-.82v-3.76c0-.57,0-1.09-.04-1.6h.72l.04,1.03h.03c.24-.67.8-1.15,1.46-1.15.09,0,.16.02.25.03v.78Z"/>
          <path class="cls-2" d="m181.5,42.71c0,2-1.32,2.85-2.51,2.85-1.38,0-2.44-1.03-2.44-2.77,0-1.83,1.14-2.85,2.51-2.85,1.47,0,2.44,1.12,2.44,2.77Zm-2.47-2.13c-1.16,0-1.64,1.14-1.64,2.18,0,1.19.66,2.16,1.62,2.16s1.65-.96,1.65-2.18c0-.96-.46-2.16-1.63-2.16Z"/>
          <path class="cls-2" d="m189.02,45.44h-3.96v-7.5h3.79v.69h-2.97v2.54h2.8v.68h-2.8v2.9h3.14v.69Z"/>
          <path class="cls-2" d="m191.02,45.44h-.82v-7.88h.82v7.88Z"/>
          <path class="cls-2" d="m196.45,45.22c-.31.15-.87.33-1.68.33-1.57,0-2.5-1.1-2.5-2.71,0-1.68.95-2.89,2.39-2.89,1.65,0,2.08,1.52,2.08,2.45,0,.19-.01.32-.02.45h-3.65c.01,1.49.86,2.05,1.82,2.05.67,0,1.07-.14,1.41-.28l.16.59Zm-.52-2.97c0-.73-.3-1.67-1.35-1.67-.98,0-1.42.94-1.5,1.67h2.85Z"/>
          <path class="cls-2" d="m205.26,45.44h-.81v-3.1c0-1.04-.37-1.71-1.18-1.71-.66,0-1.26.62-1.26,1.44v3.38h-.81v-3.31c0-.86-.36-1.51-1.12-1.51-.7,0-1.32.69-1.32,1.53v3.29h-.81v-3.99c0-.55-.02-.95-.04-1.39h.72l.05.87h.03c.3-.52.79-.98,1.63-.98.7,0,1.24.43,1.47,1.07h.02c.35-.64.9-1.07,1.72-1.07.66,0,1.7.42,1.7,2.26v3.23Z"/>
          <path class="cls-2" d="m210.65,45.22c-.31.15-.87.33-1.68.33-1.57,0-2.5-1.1-2.5-2.71,0-1.68.95-2.89,2.39-2.89,1.65,0,2.08,1.52,2.08,2.45,0,.19,0,.32-.02.45h-3.65c0,1.49.86,2.05,1.82,2.05.67,0,1.07-.14,1.41-.28l.16.59Zm-.52-2.97c.01-.73-.3-1.67-1.35-1.67-.98,0-1.42.94-1.5,1.67h2.85Z"/>
          <path class="cls-2" d="m216.45,45.44h-.82v-3.17c0-.88-.32-1.64-1.25-1.64-.7,0-1.41.59-1.41,1.53v3.29h-.82v-3.99c0-.55-.02-.95-.04-1.39h.73l.05.88h.02c.27-.52.89-.99,1.72-.99.67,0,1.81.4,1.81,2.23v3.27Z"/>
          <path class="cls-2" d="m218.25,39.1l.81-.28v1.25h1.39v.64h-1.39v3.1c0,.68.21,1.05.73,1.05.25,0,.41-.03.55-.08l.05.63c-.18.08-.45.13-.8.13-1.3,0-1.34-1.18-1.34-1.75v-3.08h-.83v-.64h.83v-.97Z"/>
          <path class="cls-2" d="m225.04,44.16c0,.44,0,.91.08,1.28h-.75l-.08-.69h-.03c-.28.42-.83.81-1.59.81-1.02,0-1.57-.75-1.57-1.53,0-1.29,1.12-1.99,3.11-1.98,0-.45,0-1.48-1.22-1.48-.46,0-.95.13-1.31.38l-.2-.56c.43-.29,1.03-.45,1.63-.45,1.52,0,1.91,1.07,1.91,2.14v2.08Zm-.81-1.51c-1.01,0-2.28.15-2.28,1.28,0,.69.43.99.93.99.8,0,1.36-.61,1.36-1.26v-1.01Z"/>
          <path class="cls-2" d="m229.06,40.76c-.09,0-.18-.02-.3-.02-.89,0-1.34.88-1.34,1.78v2.91h-.82v-3.76c0-.57-.01-1.09-.04-1.6h.72l.04,1.03h.03c.24-.67.8-1.15,1.46-1.15.09,0,.16.02.25.03v.78Z"/>
          <path class="cls-2" d="m234.07,40.08l-1.43,3.8c-.64,1.74-1.09,2.75-1.76,3.38-.45.41-.9.58-1.09.63l-.23-.69c1.25-.46,1.73-1.82,1.73-1.93,0-.05-.02-.13-.06-.23l-1.9-4.96h.9l1.17,3.26c.14.37.26.8.34,1.12h.03c.09-.32.22-.73.34-1.14l1.08-3.24h.87Z"/>
          <path class="cls-2" d="m240.64,38.86c-.22-.14-.69-.34-1.32-.34-1.04,0-1.44.64-1.44,1.18,0,.74.45,1.11,1.46,1.54,1.21.51,1.83,1.13,1.83,2.21,0,1.19-.87,2.11-2.48,2.11-.68,0-1.42-.21-1.79-.47l.23-.68c.4.27,1,.46,1.61.46,1,0,1.59-.54,1.59-1.35,0-.74-.4-1.19-1.38-1.59-1.13-.42-1.9-1.08-1.9-2.12,0-1.14.93-1.98,2.29-1.98.71,0,1.25.18,1.54.35l-.25.68Z"/>
          <path class="cls-2" d="m246.08,45.24c-.24.12-.77.31-1.46.31-1.54,0-2.55-1.09-2.55-2.74s1.09-2.87,2.75-2.87c.6,0,1.08.18,1.29.29l-.21.66c-.23-.13-.58-.28-1.1-.28-1.24,0-1.89.99-1.89,2.15,0,1.3.78,2.12,1.86,2.12.53,0,.9-.15,1.16-.27l.15.63Z"/>
          <path class="cls-2" d="m251.52,45.44h-.82v-3.17c0-.88-.32-1.63-1.24-1.63-.63,0-1.42.52-1.42,1.51v3.3h-.82v-7.88h.82v3.34h.02c.35-.59,1-.96,1.66-.96s1.79.4,1.79,2.23v3.27Z"/>
          <path class="cls-2" d="m257.66,42.71c0,2-1.32,2.85-2.51,2.85-1.38,0-2.44-1.03-2.44-2.77,0-1.83,1.14-2.85,2.51-2.85,1.47,0,2.44,1.12,2.44,2.77Zm-2.47-2.13c-1.16,0-1.64,1.14-1.64,2.18,0,1.19.66,2.16,1.62,2.16s1.65-.96,1.65-2.18c0-.96-.46-2.16-1.63-2.16Z"/>
          <path class="cls-2" d="m263.46,42.71c0,2-1.32,2.85-2.51,2.85-1.38,0-2.44-1.03-2.44-2.77,0-1.83,1.14-2.85,2.51-2.85,1.47,0,2.44,1.12,2.44,2.77Zm-2.47-2.13c-1.16,0-1.64,1.14-1.64,2.18,0,1.19.66,2.16,1.62,2.16s1.65-.96,1.65-2.18c0-.96-.46-2.16-1.63-2.16Z"/>
          <path class="cls-2" d="m265.52,45.44h-.82v-7.88h.82v7.88Z"/>
        </g>
      </g>
    </g>
  </g>
  <g id="_レイヤー_4" data-name="レイヤー 4">
    <rect class="cls-1" width="275" height="51"/>
  </g>
</svg>